#!OML:ASF H:\Terrain\Patient Classification 1\Walking\steve\steve.ASF
:FULLY-SPECIFIED
:DEGREES
48
root 7.24106 15.4114 -32.6676 5.04347 0.501929 3.43668
lowerback 2.54982 0.155237 -5.00722
upperback -2.9931 -0.0214367 0.154966
thorax -4.53306 0.159404 2.97036
lowerneck -9.70526 -0.671478 -3.67164
upperneck 14.6814 -1.31819 6.24505
head 6.10426 -0.360112 2.4838
rclavicle -4.04878e-015 2.78299e-015
rhumerus -83.4051 -36.0844 -15.8333
rradius 11.5813
rwrist 67.1703
rhand -14.578 -32.2313
rfingers 7.12502
rthumb 11.5717 -61.8918
lclavicle -4.04878e-015 2.78299e-015
lhumerus -20.7417 -9.28115 89.6692
lradius 35.3689
lwrist 19.4847
lhand -27.2931 -12.4079
lfingers 7.12502
lthumb -0.703158 17.5707
rfemur -41.9096 0.247827 21.2588
rtibia 40.4312
rfoot -13.2175 3.22848
rtoes -9.50087
lfemur -0.489131 5.28329 -27.8389
ltibia 20.9228
lfoot -17.6189 -9.8855
ltoes -4.61231
49
root 7.23797 15.4054 -32.4243 5.19228 1.08617 3.56076
lowerback 2.51854 0.0942635 -5.22229
upperback -3.06108 -0.112252 0.172981
thorax -4.57959 0.12442 3.11575
lowerneck -9.47629 -0.779798 -3.76158
upperneck 14.3732 -1.45668 6.33246
head 5.97604 -0.431883 2.51201
rclavicle 5.7005e-015 -6.55989e-015
rhumerus -85.9964 -35.5726 -11.8886
rradius 11.5294
rwrist 68.7592
rhand -14.6824 -31.8204
rfingers 7.12502
rthumb 11.4711 -61.4866
lclavicle 5.7005e-015 -6.55989e-015
lhumerus -19.6995 -11.0299 89.6443
lradius 36.6971
lwrist 20.1537
lhand -26.9923 -13.6991
lfingers 7.12502
lthumb -0.412669 16.2802
rfemur -42.1596 0.533406 20.7588
rtibia 37.0781
rfoot -12.923 3.48587
rtoes -8.76094
lfemur 1.03614 5.54852 -27.6973
ltibia 19.5095
lfoot -17.0377 -10.5193
ltoes -4.92286
50
root 7.23574 15.4008 -32.181 5.31299 1.66867 3.80727
lowerback 2.02523 -0.0354376 -5.48589
upperback -2.80756 -0.262765 0.0689805
thorax -4.02078 0.0360328 3.16218
lowerneck -9.22632 -0.917384 -3.64304
upperneck 13.6333 -1.63838 6.36127
head 5.7106 -0.523017 2.47992
rclavicle 1.6819e-015 -1.23246e-014
rhumerus -88.8525 -35.556 -7.63517
rradius 11.4865
rwrist 70.9786
rhand -15.1578 -31.7243
rfingers 7.12502
rthumb 11.0125 -61.4154
lclavicle 1.6819e-015 -1.23246e-014
lhumerus -18.1864 -12.691 89.2366
lradius 38.0423
lwrist 20.7724
lhand -26.4983 -14.8063
lfingers 7.12502
lthumb 0.0644396 15.1735
rfemur -42.4381 0.771104 20.055
rtibia 34.138
rfoot -12.7833 3.77461
rtoes -8.0985
lfemur 2.8402 5.50203 -27.7273
ltibia 17.6207
lfoot -16.2124 -10.887
ltoes -4.17548
51
root 7.23452 15.366 -31.9371 5.4602 2.37448 4.19523
lowerback 2.318 -0.253416 -5.91143
upperback -3.08246 -0.600637 0.0589637
thorax -4.4417 -0.100654 3.41308
lowerneck -8.93355 -0.998114 -3.77897
upperneck 13.5294 -1.72588 6.33218
head 5.63315 -0.580532 2.48572
rclavicle 6.7876e-015 -1.47101e-014
rhumerus -89.8296 -34.4906 -6.37002
rradius 11.6073
rwrist 70.7879
rhand -15.6447 -32.4343
rfingers 7.12502
rthumb 10.5429 -62.1499
lclavicle 6.7876e-015 -1.47101e-014
lhumerus -17.55 -13.6872 89.0392
lradius 39.4496
lwrist 20.9463
lhand -26.1467 -15.5822
lfingers 7.12502
lthumb 0.404048 14.3971
rfemur -42.8466 1.86282 18.6658
rtibia 31.7002
rfoot -13.1683 2.98035
rtoes -9.59289
lfemur 4.85399 5.19154 -27.9255
ltibia 15.3214
lfoot -15.1894 -11.0175
ltoes -3.6883
52
root 7.2346 15.3631 -31.6935 5.64649 3.0815 4.75384
lowerback 2.14381 -0.450772 -6.52769
upperback -3.05266 -0.879261 0.00769443
thorax -4.27955 -0.225632 3.7193
lowerneck -9.02357 -1.03726 -3.73141
upperneck 13.555 -1.78113 6.30545
head 5.6591 -0.605087 2.46534
rclavicle -1.21445e-015 4.37326e-015
rhumerus -91.8293 -34.0322 -3.13521
rradius 11.682
rwrist 72.137
rhand -16.1554 -32.6176
rfingers 7.12502
rthumb 10.0502 -62.3576
lclavicle -1.21445e-015 4.37326e-015
lhumerus -16.3109 -14.3297 88.7392
lradius 40.518
lwrist 20.6448
lhand -26.3051 -15.8031
lfingers 7.12502
lthumb 0.25104 14.1765
rfemur -43.2645 2.54245 17.2232
rtibia 29.4959
rfoot -13.1288 2.15562
rtoes -11.0002
lfemur 6.96061 4.96229 -28.2803
ltibia 12.7717
lfoot -13.9427 -11.0064
ltoes -4.01465
53
root 7.24158 15.3509 -31.4485 5.80935 3.94958 5.19362
lowerback 2.01256 -0.710468 -6.91981
upperback -2.99037 -1.23239 -0.0757859
thorax -4.09672 -0.397993 3.86808
lowerneck -9.09089 -1.111 -3.66865
upperneck 13.4472 -1.88579 6.31632
head 5.64234 -0.651982 2.44943
rclavicle 5.07367e-015 9.54166e-015
rhumerus -93.1566 -33.5175 -1.05754
rradius 11.8204
rwrist 72.6957
rhand -16.2883 -32.8452
rfingers 7.12502
rthumb 9.92202 -62.5914
lclavicle 5.07367e-015 9.54166e-015
lhumerus -15.0203 -14.7727 88.282
lradius 41.4493
lwrist 20.3213
lhand -26.1199 -16.3718
lfingers 7.12502
lthumb 0.429978 13.6075
rfemur -43.5755 2.51839 16.2492
rtibia 27.4338
rfoot -12.8423 1.67091
rtoes -10.6095
lfemur 9.18718 4.70526 -28.4407
ltibia 10.0147
lfoot -12.2652 -11.4385
ltoes -2.12146
54
root 7.25213 15.3282 -31.1978 6.03964 4.85551 5.17283
lowerback 2.01265 -0.978835 -6.74851
upperback -3.16902 -1.58938 -0.0331669
thorax -4.24386 -0.570663 3.83635
lowerneck -8.9349 -1.19765 -3.69754
upperneck 13.3333 -1.98256 6.21206
head 5.58452 -0.711678 2.41319
rclavicle 2.44987e-015 7.95139e-016
rhumerus -93.4826 -32.5974 -0.672723
rradius 11.9996
rwrist 71.9031
rhand -16.1474 -32.857
rfingers 7.12502
rthumb 10.058 -62.5966
lclavicle 2.44987e-015 7.95139e-016
lhumerus -14.3046 -15.2541 87.9173
lradius 42.6926
lwrist 20.2318
lhand -25.3952 -17.105
lfingers 7.12502
lthumb 1.1299 12.8717
rfemur -43.7972 1.39389 16.4853
rtibia 25.5065
rfoot -12.3016 2.73388
rtoes -5.2881
lfemur 11.8521 3.50449 -28.2955
ltibia 6.18304
lfoot -10.4361 -10.7279
ltoes -0.483155
55
root 7.25947 15.3227 -30.9445 6.19176 5.44031 4.8407
lowerback 1.98328 -1.08377 -6.28154
upperback -3.35005 -1.70961 0.0996728
thorax -4.40848 -0.633753 3.7208
lowerneck -8.95765 -1.23642 -3.61393
upperneck 13.5428 -2.04014 6.09955
head 5.65499 -0.740901 2.36086
rclavicle 2.19952e-014 -2.26615e-014
rhumerus -94.918 -31.7793 1.62956
rradius 12.0802
rwrist 72.3311
rhand -16.571 -32.5217
rfingers 7.12502
rthumb 9.64923 -62.2807
lclavicle 2.19952e-014 -2.26615e-014
lhumerus -13.8938 -15.9067 87.7088
lradius 44.2712
lwrist 20.1693
lhand -25.4157 -16.4503
lfingers 7.12502
lthumb 1.11011 13.5265
rfemur -43.9975 -1.12596 18.2092
rtibia 23.9502
rfoot -10.9944 5.73331
rtoes -0.280653
lfemur 15.8274 2.67103 -27.9461
ltibia 7.31528e-014
lfoot -7.81697 -9.03088
ltoes -3.01826
56
root 7.2662 15.3009 -30.692 6.20111 5.92738 4.71142
lowerback 1.92141 -1.20122 -6.08704
upperback -3.34195 -1.84941 0.206962
thorax -4.35025 -0.710118 3.72859
lowerneck -8.95976 -1.2534 -3.59561
upperneck 13.5236 -2.06878 6.12543
head 5.65095 -0.752146 2.36369
rclavicle -1.50797e-014 -2.38542e-014
rhumerus -95.6459 -31.2604 2.76785
rradius 12.144
rwrist 71.6794
rhand -17.3527 -32.5466
rfingers 7.12502
rthumb 8.89499 -62.3391
lclavicle -1.50797e-014 -2.38542e-014
lhumerus -13.4349 -16.3438 87.4723
lradius 45.8627
lwrist 20.0315
lhand -25.9601 -15.8543
lfingers 7.12502
lthumb 0.58429 14.1246
rfemur -43.9283 -0.667796 17.9798
rtibia 23.0156
rfoot -12.1172 5.33801
rtoes -3.87159
lfemur 16.8429 1.92806 -27.7601
ltibia -4.77083e-014
lfoot -7.64919 -8.62128
ltoes -4.56717
57
root 7.27027 15.2971 -30.4374 6.24936 6.39245 4.98883
lowerback 1.98544 -1.349 -6.41059
upperback -3.37204 -2.06457 0.245144
thorax -4.38525 -0.803512 3.96293
lowerneck -8.93918 -1.25456 -3.61479
upperneck 13.328 -2.05455 6.09549
head 5.58562 -0.750603 2.35711
rclavicle 3.81247e-014 1.78906e-014
rhumerus -87.35 -29.4731 -14.404
rradius 12.9984
rwrist 56.0496
rhand -17.5647 -34.413
rfingers 7.12502
rthumb 8.69042 -64.2142
lclavicle 3.81247e-014 1.78906e-014
lhumerus -12.9734 -16.3943 87.2705
lradius 47.1258
lwrist 19.7675
lhand -26.5389 -16.5069
lfingers 7.12502
lthumb 0.0253047 13.4729
rfemur -44.3228 -3.72903 19.485
rtibia 22.7316
rfoot -10.9509 8.02406
rtoes -9.48941
lfemur 17.7767 1.16233 -27.9752
ltibia 2.54444e-014
lfoot -7.18852 -8.39562
ltoes -4.25802
58
root 7.27674 15.2773 -30.1835 6.37483 6.79094 5.28489
lowerback 1.99258 -1.47304 -6.69974
upperback -3.39055 -2.24132 0.30697
thorax -4.37794 -0.880222 4.19879
lowerneck -9.1328 -1.22832 -3.55907
upperneck 13.1976 -1.96838 5.76482
head 5.57037 -0.727362 2.24857
rclavicle -3.18809e-014 -2.5842e-014
rhumerus -86.6037 -28.6856 -16.1909
rradius 13.0743
rwrist 54.1839
rhand -18.4482 -34.7555
rfingers 7.12502
rthumb 7.8378 -64.5902
lclavicle -3.18809e-014 -2.5842e-014
lhumerus -12.4189 -16.0613 87.1505
lradius 48.2562
lwrist 19.5414
lhand -26.6344 -16.9086
lfingers 7.12502
lthumb -0.0669868 13.0712
rfemur -44.578 -3.51271 18.8822
rtibia 23.0487
rfoot -11.5673 7.72461
rtoes -14.3371
lfemur 18.6043 0.441491 -28.1864
ltibia -6.36111e-014
lfoot -6.45435 -8.38427
ltoes -0.971732
59
root 7.28567 15.2508 -29.9284 6.39653 7.08651 5.48118
lowerback 1.95834 -1.58417 -6.81249
upperback -3.30443 -2.3869 0.349794
thorax -4.24507 -0.955253 4.31039
lowerneck -9.17812 -1.14558 -3.4984
upperneck 12.8444 -1.81583 5.53481
head 5.45829 -0.668533 2.17508
rclavicle 1.75245e-014 2.38542e-014
rhumerus -88.7027 -29.103 -11.398
rradius 12.6432
rwrist 57.4801
rhand -18.9872 -34.1719
rfingers 7.12502
rthumb 7.31755 -64.0253
lclavicle 1.75245e-014 2.38542e-014
lhumerus -11.9661 -15.8303 86.8928
lradius 49.4843
lwrist 19.6412
lhand -26.3879 -16.7724
lfingers 7.12502
lthumb 0.171127 13.2072
rfemur -44.6557 -3.25794 18.4478
rtibia 23.6393
rfoot -11.7991 7.81694
rtoes -16.1879
lfemur 19.4596 -0.1668 -28.2643
ltibia 6.67916e-014
lfoot -5.19883 -8.39717
ltoes 5.24872
60
root 7.29308 15.2211 -29.6691 6.13448 7.11855 5.49317
lowerback 2.26988 -1.56666 -6.756
upperback -3.23617 -2.38036 0.415279
thorax -4.35059 -0.950412 4.35689
lowerneck -9.21635 -1.09599 -3.58296
upperneck 12.6382 -1.71948 5.48482
head 5.39638 -0.630146 2.17913
rclavicle 4.1077e-015 2.38542e-015
rhumerus -89.0076 -29.11 -10.8201
rradius 12.9503
rwrist 56.5445
rhand -17.8038 -34.5049
rfingers 7.12502
rthumb 8.45972 -64.3155
lclavicle 4.1077e-015 2.38542e-015
lhumerus -11.8645 -15.8647 86.7102
lradius 50.6251
lwrist 19.8405
lhand -26.7526 -17.2466
lfingers 7.12502
lthumb -0.181167 12.7331
rfemur -44.0693 -1.6915 17.5703
rtibia 24.1394
rfoot -12.2998 6.81148
rtoes -13.3186
lfemur 20.6394 -0.448437 -28.2386
ltibia 1.59028e-014
lfoot -4.55329 -7.89052
ltoes 2.13442
61
root 7.30598 15.1988 -29.4094 5.85076 7.02953 5.10391
lowerback 2.44091 -1.45661 -6.14793
upperback -3.15248 -2.20922 0.569757
thorax -4.39269 -0.88345 4.17237
lowerneck -9.25766 -1.15507 -3.6592
upperneck 12.4961 -1.74157 5.19828
head 5.35873 -0.664668 2.09898
rclavicle 5.00798e-014 1.51076e-014
rhumerus -88.5785 -28.9848 -12.0679
rradius 13.5197
rwrist 54.448
rhand -16.4237 -35.3447
rfingers 7.12502
rthumb 9.79144 -65.0971
lclavicle 5.00798e-014 1.51076e-014
lhumerus -11.7979 -15.9113 86.7419
lradius 51.528
lwrist 20.0744
lhand -27.5014 -18.2914
lfingers 7.12502
lthumb -0.904349 11.6864
rfemur -43.4624 0.768379 16.684
rtibia 25.0326
rfoot -13.0482 4.73152
rtoes -10.7482
lfemur 21.9199 -0.587289 -27.7943
ltibia 5.725e-014
lfoot -3.74805 -7.47798
ltoes -0.0847071
